# File created by Blade
# Date/Time:  Fri Jan 16 14:33:41 2015
# Frame Rate: 120.000 fps
#------------------------------------------------------
:FULLY-SPECIFIED
:DEGREES
1504
root 18.842873 35.794625 -24.048070 -169.702425 -9.593984 -179.476544
Spine -20.161104 -20.720718 3.249159
Head 9.929276 5.004453 6.792186
LeftShoulder -16.810765 -15.427521 -0.314697
LeftArm -21.575924 2.969067 -72.543047
LeftForeArm 3.513000 -0.000000 9.773203
LeftHand -2.077316 -0.000000 1.669392
LeftHandThumb1 -26.253704 0.000000 33.147579
RightShoulder -23.745557 -10.371042 -11.913423
RightArm -63.850911 72.816606 -30.047967
RightForeArm -7.178320 -0.000000 110.015279
RightHand 2.385799 -0.000000 -13.208206
RightHandThumb1 -24.326973 -0.000000 -32.862282
LeftUpLeg -3.303743 4.937832 0.291285
LeftLeg -5.717570 -0.000000 0.000000
LeftFoot -18.010307 22.803215 -14.920358
LeftToeBase 25.076910 -0.000000 -0.000000
RightUpLeg -3.203792 -16.413435 3.761259
RightLeg -2.962202 -0.000000 0.000000
RightFoot -21.738639 -26.106788 18.827321
RightToeBase 21.802091 -0.000000 -0.000000
1505
root 18.843109 35.794020 -24.040187 -169.709222 -9.603318 -179.472189
Spine -20.110250 -20.560880 3.171071
Head 9.839107 4.780861 6.766736
LeftShoulder -16.766581 -15.403436 -0.311152
LeftArm -21.381782 3.052960 -72.591001
LeftForeArm 3.489261 -0.000000 9.771257
LeftHand -2.039437 -0.000000 1.670290
LeftHandThumb1 -26.253704 0.000000 33.147579
RightShoulder -23.722446 -10.288752 -11.827826
RightArm -63.553016 72.929447 -29.892931
RightForeArm -7.195111 -0.000000 109.782236
RightHand 2.346459 -0.000000 -13.345632
RightHandThumb1 -24.326973 -0.000000 -32.862282
LeftUpLeg -3.317228 4.926362 0.296660
LeftLeg -5.704146 -0.000000 0.000000
LeftFoot -18.008616 22.807086 -14.883058
LeftToeBase 25.011893 -0.000000 -0.000000
RightUpLeg -3.214818 -16.405805 3.767335
RightLeg -2.953325 -0.000000 0.000000
RightFoot -21.737531 -26.141054 18.794950
RightToeBase 21.831361 -0.000000 -0.000000
1506
root 18.844584 35.794025 -24.031116 -169.717988 -9.627470 -179.475206
Spine -20.056533 -20.427743 3.080480
Head 9.767214 4.571829 6.761420
LeftShoulder -16.720487 -15.375183 -0.308251
LeftArm -21.190275 3.128876 -72.615669
LeftForeArm 3.385715 -0.000000 9.801875
LeftHand -2.078966 -0.000000 1.562157
LeftHandThumb1 -26.253704 0.000000 33.147579
RightShoulder -23.635999 -10.173243 -11.740461
RightArm -63.387249 73.002362 -29.871173
RightForeArm -7.175371 -0.000000 109.533083
RightHand 2.381580 0.000000 -13.342798
RightHandThumb1 -24.326973 -0.000000 -32.862282
LeftUpLeg -3.334136 4.895636 0.297684
LeftLeg -5.687253 -0.000000 0.000000
LeftFoot -17.998878 22.817055 -14.853308
LeftToeBase 25.036141 -0.000000 -0.000000
RightUpLeg -3.222572 -16.438191 3.772821
RightLeg -2.951736 -0.000000 0.000000
RightFoot -21.732481 -26.148921 18.777272
RightToeBase 21.821592 -0.000000 -0.000000
1507
root 18.845286 35.793708 -24.023222 -169.725480 -9.642201 -179.469051
Spine -20.014153 -20.276752 3.005949
Head 9.694386 4.342287 6.737037
LeftShoulder -16.686531 -15.348636 -0.317744
LeftArm -20.999039 3.231296 -72.646491
LeftForeArm 3.325975 0.000000 9.815744
LeftHand -2.104402 -0.000000 1.535470
LeftHandThumb1 -26.253704 0.000000 33.147579
RightShoulder -23.573647 -10.139367 -11.601101
RightArm -63.221609 73.194059 -29.894046
RightForeArm -7.395185 -0.000000 109.277526
RightHand 2.374011 -0.000000 -13.203943
RightHandThumb1 -24.326973 -0.000000 -32.862282
LeftUpLeg -3.335212 4.832689 0.309935
LeftLeg -5.697655 -0.000000 0.000000
LeftFoot -17.998226 22.859713 -14.847622
LeftToeBase 24.990965 -0.000000 -0.000000
RightUpLeg -3.231015 -16.454501 3.784499
RightLeg -2.949014 -0.000000 0.000000
RightFoot -21.731141 -26.150721 18.762192
RightToeBase 21.814475 -0.000000 -0.000000
1508
root 18.846367 35.793522 -24.014763 -169.739643 -9.650357 -179.461131
Spine -19.960293 -20.103612 2.912690
Head 9.623119 4.126145 6.739777
LeftShoulder -16.628063 -15.314891 -0.337041
LeftArm -20.795411 3.348210 -72.675445
LeftForeArm 3.195961 -0.000000 9.826855
LeftHand -2.143386 -0.000000 1.650610
LeftHandThumb1 -26.253704 0.000000 33.147579
RightShoulder -23.516609 -10.094175 -11.461564
RightArm -63.028185 73.397459 -29.877493
RightForeArm -7.568169 -0.000000 108.987728
RightHand 2.454671 -0.000000 -13.147548
RightHandThumb1 -24.326973 -0.000000 -32.862282
LeftUpLeg -3.343191 4.787188 0.321861
LeftLeg -5.685752 -0.000000 0.000000
LeftFoot -18.016331 22.902098 -14.850699
LeftToeBase 25.051093 -0.000000 -0.000000
RightUpLeg -3.233816 -16.466358 3.794486
RightLeg -2.945837 -0.000000 0.000000
RightFoot -21.722387 -26.151279 18.785857
RightToeBase 21.764667 -0.000000 -0.000000
1509
root 18.848407 35.793527 -24.004862 -169.754630 -9.673616 -179.450144
Spine -19.898171 -19.929286 2.810887
Head 9.558412 3.900995 6.771292
LeftShoulder -16.542857 -15.321532 -0.349223
LeftArm -20.631572 3.444306 -72.693118
LeftForeArm 3.152845 -0.000000 9.843742
LeftHand -2.141689 0.000000 1.675062
LeftHandThumb1 -26.253704 0.000000 33.147579
RightShoulder -23.459137 -10.039573 -11.319214
RightArm -62.788983 73.612249 -29.811087
RightForeArm -7.672838 -0.000000 108.726110
RightHand 2.459764 -0.000000 -13.259595
RightHandThumb1 -24.326973 -0.000000 -32.862282
LeftUpLeg -3.350631 4.690182 0.345947
LeftLeg -5.678913 -0.000000 0.000000
LeftFoot -18.021407 22.981800 -14.819752
LeftToeBase 25.020655 -0.000000 -0.000000
RightUpLeg -3.241784 -16.503878 3.812414
RightLeg -2.936651 -0.000000 0.000000
RightFoot -21.715958 -26.148975 18.743962
RightToeBase 21.853422 -0.000000 -0.000000
1510
root 18.849907 35.793915 -23.995767 -169.755065 -9.671673 -179.446821
Spine -19.856988 -19.722734 2.699346
Head 9.489129 3.681741 6.796161
LeftShoulder -16.455087 -15.350762 -0.344376
LeftArm -20.517447 3.586270 -72.734293
LeftForeArm 3.063024 -0.000000 9.880945
LeftHand -2.036646 -0.000000 1.356231
LeftHandThumb1 -26.253704 0.000000 33.147579
RightShoulder -23.398258 -9.923400 -11.201893
RightArm -62.379278 73.793856 -29.587012
RightForeArm -7.847684 -0.000000 108.438148
RightHand 2.468938 -0.000000 -13.361073
RightHandThumb1 -24.326973 -0.000000 -32.862282
LeftUpLeg -3.379359 4.685718 0.349056
LeftLeg -5.649943 -0.000000 0.000000
LeftFoot -18.024699 22.986171 -14.800806
LeftToeBase 25.036836 -0.000000 -0.000000
RightUpLeg -3.260725 -16.515904 3.822444
RightLeg -2.933041 -0.000000 0.000000
RightFoot -21.694949 -26.166310 18.722710
RightToeBase 21.817950 -0.000000 -0.000000
1511
root 18.852559 35.794697 -23.985085 -169.744737 -9.686088 -179.445032
Spine -19.835969 -19.540245 2.592404
Head 9.435425 3.435411 6.827276
LeftShoulder -16.354727 -15.400779 -0.343449
LeftArm -20.437493 3.698534 -72.754746
LeftForeArm 3.012440 0.000000 9.919919
LeftHand -2.115758 -0.000000 1.730055
LeftHandThumb1 -26.253704 0.000000 33.147579
RightShoulder -23.313075 -9.871444 -11.053365
RightArm -62.118163 74.053631 -29.514860
RightForeArm -7.968298 -0.000000 108.125837
RightHand 2.513966 -0.000000 -13.226201
RightHandThumb1 -24.326973 -0.000000 -32.862282
LeftUpLeg -3.422690 4.649053 0.355788
LeftLeg -5.624362 -0.000000 0.000000
LeftFoot -18.021131 22.998522 -14.790733
LeftToeBase 25.054733 -0.000000 -0.000000
RightUpLeg -3.289751 -16.555308 3.839565
RightLeg -2.937775 -0.000000 0.000000
RightFoot -21.668231 -26.138533 18.713474
RightToeBase 21.783347 -0.000000 -0.000000
1512
root 18.852719 35.795696 -23.974213 -169.724887 -9.695643 -179.454860
Spine -19.822283 -19.329563 2.470458
Head 9.393577 3.185312 6.859294
LeftShoulder -16.256199 -15.440125 -0.330719
LeftArm -20.343701 3.778474 -72.785472
LeftForeArm 2.989839 0.000000 9.952844
LeftHand -2.132787 -0.000000 1.878226
LeftHandThumb1 -26.253704 0.000000 33.147579
RightShoulder -23.264512 -9.788413 -10.917787
RightArm -61.573440 74.308324 -29.162152
RightForeArm -8.090762 0.000000 107.832412
RightHand 2.499308 -0.000000 -13.582364
RightHandThumb1 -24.326973 -0.000000 -32.862282
LeftUpLeg -3.460117 4.562172 0.349972
LeftLeg -5.620112 -0.000000 0.000000
LeftFoot -18.026053 23.069089 -14.826914
LeftToeBase 25.009846 -0.000000 -0.000000
RightUpLeg -3.326793 -16.573170 3.840307
RightLeg -2.936884 -0.000000 0.000000
RightFoot -21.655351 -26.152910 18.674825
RightToeBase 21.863507 -0.000000 -0.000000
1513
root 18.855152 35.795578 -23.968215 -169.734305 -9.701244 -179.440140
Spine -19.795277 -19.135889 2.376800
Head 9.356790 2.916432 6.872111
LeftShoulder -16.199094 -15.469575 -0.301116
LeftArm -20.237236 3.873038 -72.829472
LeftForeArm 2.969854 -0.000000 9.975034
LeftHand -2.099923 -0.000000 1.930587
LeftHandThumb1 -26.253704 0.000000 33.147579
RightShoulder -23.137746 -9.661763 -10.814691
RightArm -61.127578 74.523778 -28.911322
RightForeArm -8.061548 -0.000000 107.499929
RightHand 2.609709 -0.000000 -13.761813
RightHandThumb1 -24.326973 -0.000000 -32.862282
LeftUpLeg -3.469555 4.567161 0.365813
LeftLeg -5.608854 -0.000000 0.000000
LeftFoot -18.027509 23.071010 -14.799852
LeftToeBase 25.033705 -0.000000 -0.000000
RightUpLeg -3.324799 -16.628729 3.861597
RightLeg -2.947732 -0.000000 0.000000
RightFoot -21.628825 -26.100718 18.664429
RightToeBase 21.872390 -0.000000 -0.000000
1514
root 18.855899 35.795421 -23.961506 -169.741871 -9.717862 -179.435532
Spine -19.767952 -18.940541 2.270475
Head 9.315199 2.647626 6.893056
LeftShoulder -16.056878 -15.512264 -0.307797
LeftArm -20.208216 3.904721 -72.838606
LeftForeArm 2.988999 -0.000000 10.077570
LeftHand -2.107870 -0.000000 1.911264
LeftHandThumb1 -26.253704 0.000000 33.147579
RightShoulder -23.014898 -9.584778 -10.675918
RightArm -60.982339 74.791989 -28.973538
RightForeArm -7.804563 0.000000 107.187426
RightHand 2.658987 -0.000000 -13.639586
RightHandThumb1 -24.326973 -0.000000 -32.862282
LeftUpLeg -3.476544 4.535650 0.372332
LeftLeg -5.607051 -0.000000 0.000000
LeftFoot -18.024849 23.093365 -14.792795
LeftToeBase 25.014539 -0.000000 -0.000000
RightUpLeg -3.321637 -16.687754 3.875358
RightLeg -2.968939 -0.000000 0.000000
RightFoot -21.599053 -26.088363 18.640261
RightToeBase 21.886108 -0.000000 -0.000000
1515
root 18.857646 35.795192 -23.952471 -169.742632 -9.753709 -179.438633
Spine -19.739352 -18.758596 2.155828
Head 9.261804 2.384999 6.913968
LeftShoulder -15.940246 -15.541510 -0.303857
LeftArm -20.130488 3.981057 -72.862693
LeftForeArm 3.002837 -0.000000 10.151433
LeftHand -2.128183 0.000000 1.909370
LeftHandThumb1 -26.253704 0.000000 33.147579
RightShoulder -22.871767 -9.475571 -10.540604
RightArm -60.794198 75.022046 -29.005006
RightForeArm -7.499534 -0.000000 106.847288
RightHand 2.832757 -0.000000 -13.527065
RightHandThumb1 -24.326973 -0.000000 -32.862282
LeftUpLeg -3.503733 4.509273 0.372133
LeftLeg -5.591347 -0.000000 0.000000
LeftFoot -18.017143 23.093998 -14.768230
LeftToeBase 25.067780 -0.000000 -0.000000
RightUpLeg -3.338550 -16.769377 3.883453
RightLeg -2.959593 -0.000000 0.000000
RightFoot -21.596791 -26.029672 18.637365
RightToeBase 21.906760 -0.000000 -0.000000
